<?xml version="1.0" encoding="UTF-8"?><svg xmlns="http://www.w3.org/2000/svg" xmlns:xlink="http://www.w3.org/1999/xlink" height="389.7" preserveAspectRatio="xMidYMid meet" version="1.0" viewBox="0.0 0.0 201.7 389.7" width="201.7" zoomAndPan="magnify"><g><g id="change1_1"><path d="m127.22 0c-20.599 0-37.69 14.991-40.969 34.656l-5.0938 0.96875c-5.9896-10.118-17.011-16.906-29.625-16.906-19.007 0-34.406 15.4-34.406 34.406 0 16.161 11.136 29.709 26.156 33.406v3.8438h-6.9688l-0.03125-0.3125-8.25-3.0625h-5.7812l9.125 19 3.375-0.90625 1.875-3.0625h6.6562v42.969h11.031l-1.2812 9.5625-26.25 5-5.6562-2.9375-21.125 4.0312 1.4688 11.844 21.219-4.0312 4.9062-4.9375 28.531-6.1562 2.0312-12.375h104.72v-71.438h-9.1875c9.2169-7.6205 15.094-19.138 15.094-32.031 0-22.946-18.617-41.531-41.562-41.531zm-36.094 62.094c2.4967 4.3789 5.7609 8.2739 9.625 11.469h-21.531c2.2542-3.0493 4.0035-6.4842 5.1562-10.188l6.75-1.2812zm59.75 68.469c2.0711 0 3.75 1.6789 3.75 3.75s-1.6789 3.75-3.75 3.75-3.75-1.6789-3.75-3.75 1.6789-3.75 3.75-3.75z" fill="inherit"/></g><g id="change1_2"><path d="m204.3 299.37h67.735v14.286h-67.735z" fill="inherit" transform="translate(-129.38 -151.81)"/></g><g id="change2_1"><path d="m256 171.38c-11.598 0-21 9.402-21 21s9.402 21 21 21 21-9.402 21-21-9.402-21-21-21zm-2.0052 6.1979c1.8794 0 3.4089 1.5112 3.4089 3.3906s-1.5295 3.4089-3.4089 3.4089-3.4088-1.5295-3.4088-3.4089 1.5294-3.3906 3.4088-3.3906zm10.518 6.3802c1.8794 0 3.4088 1.5295 3.4088 3.4089s-1.5294 3.4088-3.4088 3.4088-3.4088-1.5295-3.4088-3.4088 1.5294-3.4089 3.4088-3.4089zm-18.557 2.6797c1.8794 0 3.3906 1.5295 3.3906 3.4089s-1.5112 3.4088-3.3906 3.4088-3.4089-1.5295-3.4089-3.4088 1.5295-3.4089 3.4089-3.4089zm17.318 9.2969c1.8794 0 3.4088 1.5112 3.4088 3.3906s-1.5294 3.4089-3.4088 3.4089-3.4089-1.5295-3.4089-3.4089 1.5295-3.3906 3.4089-3.3906zm-12.578 2.0599c1.8794 0 3.4089 1.5112 3.4089 3.3906s-1.5295 3.4088-3.4089 3.4088-3.4088-1.5295-3.4088-3.4088 1.5294-3.3906 3.4088-3.3906z" fill="#fff" transform="translate(-129.38 -151.81)"/></g><g id="change2_2"><path d="m181 186.38c-9.3888 0-17 7.6112-17 17s7.6112 17 17 17 17-7.6112 17-17-7.6112-17-17-17zm-1.6233 5.0174c1.5214 0 2.7596 1.2234 2.7596 2.7448s-1.2381 2.7596-2.7596 2.7596-2.7595-1.2381-2.7595-2.7596 1.2381-2.7448 2.7595-2.7448zm8.5148 5.1649c1.5214 0 2.7596 1.2381 2.7596 2.7596s-1.2381 2.7596-2.7596 2.7596-2.7595-1.2381-2.7595-2.7596 1.2381-2.7596 2.7595-2.7596zm-15.023 2.1693c1.5214 0 2.7448 1.2381 2.7448 2.7596s-1.2234 2.7596-2.7448 2.7596-2.7596-1.2381-2.7596-2.7596 1.2381-2.7596 2.7596-2.7596zm14.019 7.526c1.5214 0 2.7596 1.2234 2.7596 2.7448s-1.2381 2.7596-2.7596 2.7596-2.7596-1.2381-2.7596-2.7596 1.2381-2.7448 2.7596-2.7448zm-10.182 1.6675c1.5214 0 2.7596 1.2234 2.7596 2.7448s-1.2381 2.7596-2.7596 2.7596-2.7596-1.2381-2.7596-2.7596 1.2381-2.7448 2.7596-2.7448z" fill="#fff" transform="translate(-129.38 -151.81)"/></g><g id="change1_3"><path d="m220.91 313.66 14.156 227.88 6.3438-0.0312 11.781-227.84h-6.4062l-8.8438 171.62-10.625-171.62h-6.4062z" fill="inherit" transform="translate(-129.38 -151.81)"/></g><g id="change1_4"><path d="m248.22 313.66 58.781 216.44 0.0312 0.15625 0.0625 0.1875 5.1875-1.25-0.0312-0.15625-43.438-215.38h-5.4375l27.656 137.31-37.281-137.31h-5.5312z" fill="inherit" transform="translate(-129.38 -151.81)"/></g><g id="change1_5"><path d="m207.97 313.66-42.875 212.69-0.0312 0.15625 5.1875 1.25 0.0625-0.1875 0.0312-0.15625 58.094-213.75h-5.5625l-36.562 134.62 27.125-134.62h-5.4688z" fill="inherit" transform="translate(-129.38 -151.81)"/></g><g id="change1_6"><path d="m229.2 397h19.489v8.9949h-19.489z" fill="inherit" transform="translate(-129.38 -151.81)"/></g><g id="change1_7"><path d="m187.98 396.25h19.489v8.9949h-19.489z" fill="inherit" transform="translate(-129.38 -151.81)"/></g><g id="change1_8"><path d="m270.66 396.25h19.489v8.9949h-19.489z" fill="inherit" transform="translate(-129.38 -151.81)"/></g><g id="change1_9"><path d="m331.09 220.97-21.094 12.781h-16.5v31.844h16.5l21.094 12.781v-57.406z" fill="inherit" transform="translate(-129.38 -151.81)"/></g></g></svg>